<mxfile host="app.diagrams.net" modified="2024-01-13T02:50:29.250Z" agent="Mozilla/5.0 (Windows NT 10.0; Win64; x64) AppleWebKit/537.36 (KHTML, like Gecko) Chrome/120.0.0.0 Safari/537.36" etag="sNSqPcZYT0FJcRwaCYBd" version="22.1.18" type="github">
  <diagram id="C5RBs43oDa-KdzZeNtuy" name="Page-1">
    <mxGraphModel dx="858" dy="498" grid="1" gridSize="10" guides="1" tooltips="1" connect="1" arrows="1" fold="1" page="1" pageScale="1" pageWidth="827" pageHeight="1169" math="0" shadow="0">
      <root>
        <mxCell id="WIyWlLk6GJQsqaUBKTNV-0" />
        <mxCell id="WIyWlLk6GJQsqaUBKTNV-1" parent="WIyWlLk6GJQsqaUBKTNV-0" />
        <mxCell id="r3SH1TIfYEormTuTdtzs-2" style="edgeStyle=orthogonalEdgeStyle;rounded=0;orthogonalLoop=1;jettySize=auto;html=1;exitX=0.5;exitY=1;exitDx=0;exitDy=0;exitPerimeter=0;entryX=0.5;entryY=0;entryDx=0;entryDy=0;" edge="1" parent="WIyWlLk6GJQsqaUBKTNV-1" source="r3SH1TIfYEormTuTdtzs-0" target="r3SH1TIfYEormTuTdtzs-3">
          <mxGeometry relative="1" as="geometry">
            <mxPoint x="220" y="170" as="targetPoint" />
          </mxGeometry>
        </mxCell>
        <mxCell id="r3SH1TIfYEormTuTdtzs-0" value="&lt;font style=&quot;font-size: 16px;&quot;&gt;开始&lt;/font&gt;" style="strokeWidth=2;html=1;shape=mxgraph.flowchart.terminator;whiteSpace=wrap;" vertex="1" parent="WIyWlLk6GJQsqaUBKTNV-1">
          <mxGeometry x="170" y="60" width="100" height="60" as="geometry" />
        </mxCell>
        <mxCell id="r3SH1TIfYEormTuTdtzs-6" value="" style="edgeStyle=orthogonalEdgeStyle;rounded=0;orthogonalLoop=1;jettySize=auto;html=1;" edge="1" parent="WIyWlLk6GJQsqaUBKTNV-1" source="r3SH1TIfYEormTuTdtzs-3" target="r3SH1TIfYEormTuTdtzs-5">
          <mxGeometry relative="1" as="geometry" />
        </mxCell>
        <mxCell id="r3SH1TIfYEormTuTdtzs-3" value="&lt;font style=&quot;font-size: 16px;&quot;&gt;doc_list_fill()&lt;/font&gt;" style="rounded=1;whiteSpace=wrap;html=1;absoluteArcSize=1;arcSize=14;strokeWidth=2;" vertex="1" parent="WIyWlLk6GJQsqaUBKTNV-1">
          <mxGeometry x="145" y="160" width="150" height="50" as="geometry" />
        </mxCell>
        <mxCell id="r3SH1TIfYEormTuTdtzs-51" style="edgeStyle=orthogonalEdgeStyle;rounded=0;orthogonalLoop=1;jettySize=auto;html=1;exitX=0.5;exitY=1;exitDx=0;exitDy=0;" edge="1" parent="WIyWlLk6GJQsqaUBKTNV-1" source="r3SH1TIfYEormTuTdtzs-5" target="r3SH1TIfYEormTuTdtzs-50">
          <mxGeometry relative="1" as="geometry" />
        </mxCell>
        <mxCell id="r3SH1TIfYEormTuTdtzs-5" value="&lt;font style=&quot;font-size: 16px;&quot;&gt;使用strcat合成一个文件名并打开文件&lt;/font&gt;" style="whiteSpace=wrap;html=1;rounded=1;arcSize=14;strokeWidth=2;" vertex="1" parent="WIyWlLk6GJQsqaUBKTNV-1">
          <mxGeometry x="145" y="250" width="150" height="60" as="geometry" />
        </mxCell>
        <mxCell id="r3SH1TIfYEormTuTdtzs-53" style="edgeStyle=orthogonalEdgeStyle;rounded=0;orthogonalLoop=1;jettySize=auto;html=1;exitX=0.5;exitY=1;exitDx=0;exitDy=0;entryX=0.5;entryY=0;entryDx=0;entryDy=0;" edge="1" parent="WIyWlLk6GJQsqaUBKTNV-1" source="r3SH1TIfYEormTuTdtzs-7" target="r3SH1TIfYEormTuTdtzs-36">
          <mxGeometry relative="1" as="geometry" />
        </mxCell>
        <mxCell id="r3SH1TIfYEormTuTdtzs-7" value="&lt;font style=&quot;font-size: 16px;&quot;&gt;获取一个段落&lt;/font&gt;" style="whiteSpace=wrap;html=1;rounded=1;arcSize=14;strokeWidth=2;" vertex="1" parent="WIyWlLk6GJQsqaUBKTNV-1">
          <mxGeometry x="142.5" y="440" width="155" height="50" as="geometry" />
        </mxCell>
        <mxCell id="r3SH1TIfYEormTuTdtzs-45" style="edgeStyle=orthogonalEdgeStyle;rounded=0;orthogonalLoop=1;jettySize=auto;html=1;exitX=0.5;exitY=1;exitDx=0;exitDy=0;entryX=0.5;entryY=0;entryDx=0;entryDy=0;" edge="1" parent="WIyWlLk6GJQsqaUBKTNV-1" source="r3SH1TIfYEormTuTdtzs-11" target="r3SH1TIfYEormTuTdtzs-13">
          <mxGeometry relative="1" as="geometry" />
        </mxCell>
        <mxCell id="r3SH1TIfYEormTuTdtzs-11" value="&lt;font style=&quot;font-size: 16px;&quot;&gt;获取一个单词&lt;/font&gt;" style="whiteSpace=wrap;html=1;rounded=1;arcSize=14;strokeWidth=2;" vertex="1" parent="WIyWlLk6GJQsqaUBKTNV-1">
          <mxGeometry x="140" y="620" width="160" height="50" as="geometry" />
        </mxCell>
        <mxCell id="r3SH1TIfYEormTuTdtzs-28" style="edgeStyle=orthogonalEdgeStyle;rounded=0;orthogonalLoop=1;jettySize=auto;html=1;exitX=1;exitY=0.5;exitDx=0;exitDy=0;" edge="1" parent="WIyWlLk6GJQsqaUBKTNV-1" source="r3SH1TIfYEormTuTdtzs-13" target="r3SH1TIfYEormTuTdtzs-26">
          <mxGeometry relative="1" as="geometry" />
        </mxCell>
        <mxCell id="r3SH1TIfYEormTuTdtzs-46" style="edgeStyle=orthogonalEdgeStyle;rounded=0;orthogonalLoop=1;jettySize=auto;html=1;exitX=0.5;exitY=1;exitDx=0;exitDy=0;entryX=0.5;entryY=0;entryDx=0;entryDy=0;" edge="1" parent="WIyWlLk6GJQsqaUBKTNV-1" source="r3SH1TIfYEormTuTdtzs-13" target="r3SH1TIfYEormTuTdtzs-19">
          <mxGeometry relative="1" as="geometry" />
        </mxCell>
        <mxCell id="r3SH1TIfYEormTuTdtzs-13" value="&lt;font style=&quot;font-size: 16px;&quot;&gt;是否获取成功&lt;/font&gt;" style="rhombus;whiteSpace=wrap;html=1;rounded=1;arcSize=14;strokeWidth=2;" vertex="1" parent="WIyWlLk6GJQsqaUBKTNV-1">
          <mxGeometry x="140" y="700" width="160" height="80" as="geometry" />
        </mxCell>
        <mxCell id="r3SH1TIfYEormTuTdtzs-56" style="edgeStyle=orthogonalEdgeStyle;rounded=0;orthogonalLoop=1;jettySize=auto;html=1;exitX=0;exitY=0.5;exitDx=0;exitDy=0;entryX=0;entryY=0.5;entryDx=0;entryDy=0;" edge="1" parent="WIyWlLk6GJQsqaUBKTNV-1" source="r3SH1TIfYEormTuTdtzs-15" target="r3SH1TIfYEormTuTdtzs-11">
          <mxGeometry relative="1" as="geometry" />
        </mxCell>
        <mxCell id="r3SH1TIfYEormTuTdtzs-15" value="&lt;font style=&quot;font-size: 16px;&quot;&gt;记录信息&lt;/font&gt;" style="whiteSpace=wrap;html=1;rounded=1;arcSize=14;strokeWidth=2;" vertex="1" parent="WIyWlLk6GJQsqaUBKTNV-1">
          <mxGeometry x="140" y="910" width="160" height="50" as="geometry" />
        </mxCell>
        <mxCell id="r3SH1TIfYEormTuTdtzs-17" value="&lt;font style=&quot;font-size: 16px;&quot;&gt;是&lt;/font&gt;" style="whiteSpace=wrap;html=1;fillColor=#f5f5f5;fontColor=#000000;strokeColor=#666666;opacity=0;fontSize=16;" vertex="1" parent="WIyWlLk6GJQsqaUBKTNV-1">
          <mxGeometry x="220" y="780" width="50" height="40" as="geometry" />
        </mxCell>
        <mxCell id="r3SH1TIfYEormTuTdtzs-18" value="&lt;font style=&quot;font-size: 16px;&quot;&gt;否&lt;/font&gt;" style="whiteSpace=wrap;html=1;fillColor=#f5f5f5;fontColor=#000000;strokeColor=#666666;opacity=0;fontSize=16;" vertex="1" parent="WIyWlLk6GJQsqaUBKTNV-1">
          <mxGeometry x="285" y="700" width="50" height="40" as="geometry" />
        </mxCell>
        <mxCell id="r3SH1TIfYEormTuTdtzs-47" style="edgeStyle=orthogonalEdgeStyle;rounded=0;orthogonalLoop=1;jettySize=auto;html=1;exitX=0.5;exitY=1;exitDx=0;exitDy=0;entryX=0.5;entryY=0;entryDx=0;entryDy=0;" edge="1" parent="WIyWlLk6GJQsqaUBKTNV-1" source="r3SH1TIfYEormTuTdtzs-19" target="r3SH1TIfYEormTuTdtzs-15">
          <mxGeometry relative="1" as="geometry" />
        </mxCell>
        <mxCell id="r3SH1TIfYEormTuTdtzs-19" value="&lt;font style=&quot;font-size: 16px;&quot;&gt;单词变小写&lt;/font&gt;" style="rounded=1;whiteSpace=wrap;html=1;absoluteArcSize=1;arcSize=14;strokeWidth=2;" vertex="1" parent="WIyWlLk6GJQsqaUBKTNV-1">
          <mxGeometry x="140" y="820" width="160" height="50" as="geometry" />
        </mxCell>
        <mxCell id="r3SH1TIfYEormTuTdtzs-35" style="edgeStyle=orthogonalEdgeStyle;rounded=0;orthogonalLoop=1;jettySize=auto;html=1;exitX=0.5;exitY=0;exitDx=0;exitDy=0;entryX=1;entryY=0.5;entryDx=0;entryDy=0;" edge="1" parent="WIyWlLk6GJQsqaUBKTNV-1" source="r3SH1TIfYEormTuTdtzs-26" target="r3SH1TIfYEormTuTdtzs-7">
          <mxGeometry relative="1" as="geometry" />
        </mxCell>
        <mxCell id="r3SH1TIfYEormTuTdtzs-26" value="&lt;font style=&quot;font-size: 16px;&quot;&gt;记录段落单词数&lt;/font&gt;" style="whiteSpace=wrap;html=1;rounded=1;arcSize=14;strokeWidth=2;" vertex="1" parent="WIyWlLk6GJQsqaUBKTNV-1">
          <mxGeometry x="334" y="715" width="160" height="50" as="geometry" />
        </mxCell>
        <mxCell id="r3SH1TIfYEormTuTdtzs-48" style="edgeStyle=orthogonalEdgeStyle;rounded=0;orthogonalLoop=1;jettySize=auto;html=1;exitX=0;exitY=0.5;exitDx=0;exitDy=0;entryX=0;entryY=0.5;entryDx=0;entryDy=0;" edge="1" parent="WIyWlLk6GJQsqaUBKTNV-1" source="r3SH1TIfYEormTuTdtzs-36" target="r3SH1TIfYEormTuTdtzs-5">
          <mxGeometry relative="1" as="geometry" />
        </mxCell>
        <mxCell id="r3SH1TIfYEormTuTdtzs-54" style="edgeStyle=orthogonalEdgeStyle;rounded=0;orthogonalLoop=1;jettySize=auto;html=1;exitX=0.5;exitY=1;exitDx=0;exitDy=0;" edge="1" parent="WIyWlLk6GJQsqaUBKTNV-1" source="r3SH1TIfYEormTuTdtzs-36" target="r3SH1TIfYEormTuTdtzs-11">
          <mxGeometry relative="1" as="geometry" />
        </mxCell>
        <mxCell id="r3SH1TIfYEormTuTdtzs-36" value="&lt;font style=&quot;font-size: 16px;&quot;&gt;是否获取成功&lt;/font&gt;" style="whiteSpace=wrap;html=1;rounded=1;arcSize=14;strokeWidth=2;" vertex="1" parent="WIyWlLk6GJQsqaUBKTNV-1">
          <mxGeometry x="142.5" y="530" width="155" height="50" as="geometry" />
        </mxCell>
        <mxCell id="r3SH1TIfYEormTuTdtzs-43" value="&lt;font style=&quot;font-size: 16px;&quot;&gt;是&lt;/font&gt;" style="whiteSpace=wrap;html=1;fillColor=#f5f5f5;fontColor=#000000;strokeColor=#666666;opacity=0;fontSize=16;" vertex="1" parent="WIyWlLk6GJQsqaUBKTNV-1">
          <mxGeometry x="235" y="580" width="50" height="40" as="geometry" />
        </mxCell>
        <mxCell id="r3SH1TIfYEormTuTdtzs-49" value="&lt;font style=&quot;font-size: 16px;&quot;&gt;否&lt;/font&gt;" style="whiteSpace=wrap;html=1;fillColor=#f5f5f5;fontColor=#000000;strokeColor=#666666;opacity=0;fontSize=16;" vertex="1" parent="WIyWlLk6GJQsqaUBKTNV-1">
          <mxGeometry x="60" y="400" width="50" height="40" as="geometry" />
        </mxCell>
        <mxCell id="r3SH1TIfYEormTuTdtzs-52" style="edgeStyle=orthogonalEdgeStyle;rounded=0;orthogonalLoop=1;jettySize=auto;html=1;exitX=0.5;exitY=1;exitDx=0;exitDy=0;" edge="1" parent="WIyWlLk6GJQsqaUBKTNV-1" source="r3SH1TIfYEormTuTdtzs-50" target="r3SH1TIfYEormTuTdtzs-7">
          <mxGeometry relative="1" as="geometry" />
        </mxCell>
        <mxCell id="r3SH1TIfYEormTuTdtzs-66" style="edgeStyle=orthogonalEdgeStyle;rounded=0;orthogonalLoop=1;jettySize=auto;html=1;exitX=1;exitY=0.5;exitDx=0;exitDy=0;entryX=0;entryY=0.5;entryDx=0;entryDy=0;" edge="1" parent="WIyWlLk6GJQsqaUBKTNV-1" source="r3SH1TIfYEormTuTdtzs-50" target="r3SH1TIfYEormTuTdtzs-65">
          <mxGeometry relative="1" as="geometry" />
        </mxCell>
        <mxCell id="r3SH1TIfYEormTuTdtzs-50" value="&lt;font style=&quot;font-size: 16px;&quot;&gt;是否获取成功&lt;/font&gt;" style="whiteSpace=wrap;html=1;rounded=1;arcSize=14;strokeWidth=2;" vertex="1" parent="WIyWlLk6GJQsqaUBKTNV-1">
          <mxGeometry x="142.5" y="350" width="155" height="50" as="geometry" />
        </mxCell>
        <mxCell id="r3SH1TIfYEormTuTdtzs-55" value="&lt;font style=&quot;font-size: 16px;&quot;&gt;是&lt;/font&gt;" style="whiteSpace=wrap;html=1;fillColor=#f5f5f5;fontColor=#000000;strokeColor=#666666;opacity=0;fontSize=16;" vertex="1" parent="WIyWlLk6GJQsqaUBKTNV-1">
          <mxGeometry x="220" y="400" width="50" height="40" as="geometry" />
        </mxCell>
        <mxCell id="r3SH1TIfYEormTuTdtzs-60" value="&lt;font style=&quot;font-size: 16px;&quot;&gt;结束&lt;/font&gt;" style="strokeWidth=2;html=1;shape=mxgraph.flowchart.terminator;whiteSpace=wrap;" vertex="1" parent="WIyWlLk6GJQsqaUBKTNV-1">
          <mxGeometry x="810" y="540" width="100" height="60" as="geometry" />
        </mxCell>
        <mxCell id="r3SH1TIfYEormTuTdtzs-62" value="&lt;font style=&quot;font-size: 16px;&quot;&gt;否&lt;/font&gt;" style="whiteSpace=wrap;html=1;fillColor=#f5f5f5;fontColor=#000000;strokeColor=#666666;opacity=0;fontSize=16;" vertex="1" parent="WIyWlLk6GJQsqaUBKTNV-1">
          <mxGeometry x="455" y="330" width="50" height="40" as="geometry" />
        </mxCell>
        <mxCell id="r3SH1TIfYEormTuTdtzs-68" style="edgeStyle=orthogonalEdgeStyle;rounded=0;orthogonalLoop=1;jettySize=auto;html=1;exitX=0.5;exitY=1;exitDx=0;exitDy=0;entryX=0.5;entryY=0;entryDx=0;entryDy=0;" edge="1" parent="WIyWlLk6GJQsqaUBKTNV-1" source="r3SH1TIfYEormTuTdtzs-65" target="r3SH1TIfYEormTuTdtzs-67">
          <mxGeometry relative="1" as="geometry" />
        </mxCell>
        <mxCell id="r3SH1TIfYEormTuTdtzs-65" value="&lt;font style=&quot;font-size: 16px;&quot;&gt;开始查询&lt;/font&gt;" style="whiteSpace=wrap;html=1;rounded=1;arcSize=14;strokeWidth=2;" vertex="1" parent="WIyWlLk6GJQsqaUBKTNV-1">
          <mxGeometry x="585" y="350" width="150" height="50" as="geometry" />
        </mxCell>
        <mxCell id="r3SH1TIfYEormTuTdtzs-193" style="edgeStyle=orthogonalEdgeStyle;rounded=0;orthogonalLoop=1;jettySize=auto;html=1;exitX=0.5;exitY=1;exitDx=0;exitDy=0;" edge="1" parent="WIyWlLk6GJQsqaUBKTNV-1" source="r3SH1TIfYEormTuTdtzs-67" target="r3SH1TIfYEormTuTdtzs-192">
          <mxGeometry relative="1" as="geometry" />
        </mxCell>
        <mxCell id="r3SH1TIfYEormTuTdtzs-67" value="&lt;font style=&quot;font-size: 16px;&quot;&gt;输入查询操作&lt;/font&gt;" style="whiteSpace=wrap;html=1;rounded=1;arcSize=14;strokeWidth=2;" vertex="1" parent="WIyWlLk6GJQsqaUBKTNV-1">
          <mxGeometry x="585" y="440" width="150" height="50" as="geometry" />
        </mxCell>
        <mxCell id="r3SH1TIfYEormTuTdtzs-190" style="edgeStyle=orthogonalEdgeStyle;rounded=0;orthogonalLoop=1;jettySize=auto;html=1;exitX=0.5;exitY=1;exitDx=0;exitDy=0;entryX=0.5;entryY=0;entryDx=0;entryDy=0;" edge="1" parent="WIyWlLk6GJQsqaUBKTNV-1" source="r3SH1TIfYEormTuTdtzs-187" target="r3SH1TIfYEormTuTdtzs-189">
          <mxGeometry relative="1" as="geometry" />
        </mxCell>
        <mxCell id="r3SH1TIfYEormTuTdtzs-187" value="&lt;font style=&quot;font-size: 16px;&quot;&gt;输入查询参数&lt;/font&gt;" style="whiteSpace=wrap;html=1;rounded=1;arcSize=14;strokeWidth=2;" vertex="1" parent="WIyWlLk6GJQsqaUBKTNV-1">
          <mxGeometry x="585" y="650" width="150" height="50" as="geometry" />
        </mxCell>
        <mxCell id="r3SH1TIfYEormTuTdtzs-201" style="edgeStyle=orthogonalEdgeStyle;rounded=0;orthogonalLoop=1;jettySize=auto;html=1;exitX=0.5;exitY=1;exitDx=0;exitDy=0;entryX=0;entryY=0.5;entryDx=0;entryDy=0;" edge="1" parent="WIyWlLk6GJQsqaUBKTNV-1" source="r3SH1TIfYEormTuTdtzs-189" target="r3SH1TIfYEormTuTdtzs-67">
          <mxGeometry relative="1" as="geometry" />
        </mxCell>
        <mxCell id="r3SH1TIfYEormTuTdtzs-189" value="&lt;span style=&quot;font-size: 16px;&quot;&gt;输出查询结果&lt;br&gt;&lt;/span&gt;" style="whiteSpace=wrap;html=1;rounded=1;arcSize=14;strokeWidth=2;" vertex="1" parent="WIyWlLk6GJQsqaUBKTNV-1">
          <mxGeometry x="585" y="740" width="150" height="50" as="geometry" />
        </mxCell>
        <mxCell id="r3SH1TIfYEormTuTdtzs-196" style="edgeStyle=orthogonalEdgeStyle;rounded=0;orthogonalLoop=1;jettySize=auto;html=1;exitX=0.5;exitY=1;exitDx=0;exitDy=0;entryX=0.5;entryY=0;entryDx=0;entryDy=0;" edge="1" parent="WIyWlLk6GJQsqaUBKTNV-1" source="r3SH1TIfYEormTuTdtzs-192" target="r3SH1TIfYEormTuTdtzs-187">
          <mxGeometry relative="1" as="geometry" />
        </mxCell>
        <mxCell id="r3SH1TIfYEormTuTdtzs-192" value="&lt;font style=&quot;font-size: 16px;&quot;&gt;操作是否为退出&lt;/font&gt;" style="rhombus;whiteSpace=wrap;html=1;rounded=1;arcSize=14;strokeWidth=2;" vertex="1" parent="WIyWlLk6GJQsqaUBKTNV-1">
          <mxGeometry x="580" y="530" width="160" height="80" as="geometry" />
        </mxCell>
        <mxCell id="r3SH1TIfYEormTuTdtzs-197" value="&lt;font style=&quot;font-size: 16px;&quot;&gt;是&lt;/font&gt;" style="whiteSpace=wrap;html=1;fillColor=#f5f5f5;fontColor=#000000;strokeColor=#666666;opacity=0;fontSize=16;" vertex="1" parent="WIyWlLk6GJQsqaUBKTNV-1">
          <mxGeometry x="740" y="530" width="50" height="40" as="geometry" />
        </mxCell>
        <mxCell id="r3SH1TIfYEormTuTdtzs-198" value="&lt;font style=&quot;font-size: 16px;&quot;&gt;否&lt;/font&gt;" style="whiteSpace=wrap;html=1;fillColor=#f5f5f5;fontColor=#000000;strokeColor=#666666;opacity=0;fontSize=16;" vertex="1" parent="WIyWlLk6GJQsqaUBKTNV-1">
          <mxGeometry x="655" y="610" width="50" height="40" as="geometry" />
        </mxCell>
        <mxCell id="r3SH1TIfYEormTuTdtzs-203" style="edgeStyle=orthogonalEdgeStyle;rounded=0;orthogonalLoop=1;jettySize=auto;html=1;exitX=1;exitY=0.5;exitDx=0;exitDy=0;entryX=0;entryY=0.5;entryDx=0;entryDy=0;entryPerimeter=0;" edge="1" parent="WIyWlLk6GJQsqaUBKTNV-1" source="r3SH1TIfYEormTuTdtzs-192" target="r3SH1TIfYEormTuTdtzs-60">
          <mxGeometry relative="1" as="geometry" />
        </mxCell>
      </root>
    </mxGraphModel>
  </diagram>
</mxfile>
